<?xml version="1.0" encoding="UTF-8"?>
<!-- Created with Inkscape (http://www.inkscape.org/) -->
<svg width="127.94mm" height="23.634mm" version="1.1" viewBox="0 0 127.94287 23.634405" xmlns="http://www.w3.org/2000/svg" xmlns:cc="http://creativecommons.org/ns#" xmlns:dc="http://purl.org/dc/elements/1.1/" xmlns:rdf="http://www.w3.org/1999/02/22-rdf-syntax-ns#" xmlns:xlink="http://www.w3.org/1999/xlink">
 <defs>
  <linearGradient id="Orange">
   <stop stop-color="#c16100" offset="0"/>
   <stop stop-color="#ff8300" offset="1"/>
  </linearGradient>
  <linearGradient id="linearGradient4495" x1="170.75" x2="170.75" y1="125.3" y2="108.2" gradientTransform="translate(-9.1325 -85.054)" gradientUnits="userSpaceOnUse" xlink:href="#Orange"/>
  <clipPath id="clipPath4863">
   <path d="m145.62 21.822-0.17777 0.89659-0.98443 4.9532h0.031l-0.0894 0.45889-0.79582 4.0845h-2.1337c-0.0219-1.6688-0.69845-3.1567-1.9704-4.0514-1.2943-0.91831-3.0456-1.2697-5.2307-1.2697l-5.3e-4 5.29e-4c-1.0833 0-2.1355 0.06363-3.158 0.19327-1.0127 0.12118-2.0064 0.30368-2.9786 0.54674l-0.68574 0.17001-0.8723 4.4106h-0.10594l0.98599-5.071-1.1875-0.14263c-0.28287-0.03429-0.53018-0.06197-0.74776-0.0801-0.22268-0.01857-0.43064-0.02687-0.62683-0.02687-1.2104 0-2.3547 0.2832-3.3869 0.81804l0.0997-0.48421h-6.7464l-0.97048 4.9868h-1.588c-0.29168-1.3627-0.95031-2.5576-1.9725-3.4654-1.4234-1.2641-3.3574-1.8552-5.6131-1.8552h-5.2e-4c-1.5217 0-2.9507 0.27272-4.2499 0.83354v0.0026h-2e-3c-1.2915 0.56153-2.4209 1.3977-3.3512 2.4769v0.0021c-0.53364 0.62051-0.98285 1.2924-1.3524 2.0061h-1.3338c0.0078-0.12664 0.0181-0.255 0.0181-0.37569 0-1.4276-0.44593-2.7253-1.3829-3.6287-0.94092-0.90741-2.2606-1.3162-3.7362-1.3162-1.0614 0-2.0986 0.23241-3.0665 0.6873-0.12049 0.05663-0.22662 0.18667-0.34572 0.25011l0.12092-0.60358h-6.7443l-0.97048 4.9868h-1.5881c-0.29168-1.3627-0.95031-2.5576-1.9725-3.4654-1.4235-1.2642-3.3574-1.8552-5.6131-1.8552-1.5217 0-2.9491 0.27272-4.2483 0.83354l-0.0021 0.0021h-0.0021c-1.2914 0.56149-2.4209 1.3977-3.3512 2.4769v0.0021c-0.53351 0.62036-0.98215 1.2924-1.3513 2.0061h-2.0087l1.8738-9.6118h-8.0665l-5.1738 8.1383-1.9704-8.1385h-7.6605l-0.1757 0.9002-1.6981 8.7116h-0.03876v24.546h125.81v-0.05633l-4.469-1.111 4.469-23.378h-2.0247l2.0247-10.393h-6.736l-0.17415 0.90072-1.8428 9.4924h-1.9947l0.97462-4.9868h-0.0139l1.0568-5.4064z" color="#000000" color-rendering="auto" dominant-baseline="auto" fill="#e03400" image-rendering="auto" shape-rendering="auto" solid-color="#000000" style="font-feature-settings:normal;font-variant-alternates:normal;font-variant-caps:normal;font-variant-ligatures:normal;font-variant-numeric:normal;font-variant-position:normal;isolation:auto;mix-blend-mode:normal;paint-order:stroke markers fill;shape-padding:0;text-decoration-color:#000000;text-decoration-line:none;text-decoration-style:solid;text-indent:0;text-orientation:mixed;text-transform:none;white-space:normal"/>
  </clipPath>
 </defs>
 <metadata>
  <rdf:RDF>
   <cc:Work rdf:about="">
    <dc:format>image/svg+xml</dc:format>
    <dc:type rdf:resource="http://purl.org/dc/dcmitype/StillImage"/>
    <dc:title/>
   </cc:Work>
  </rdf:RDF>
 </metadata>
 <g transform="translate(-35.028 -21.822)">
  <path d="m30.994 18.81h136.07v26.647h-136.07z" clip-path="url(#clipPath4863)" fill="#e03400" stroke-width="0" style="paint-order:stroke markers fill"/>
  <g fill="url(#linearGradient4495)" stroke="#e03400" stroke-width="2.2281" style="paint-order:stroke markers fill" aria-label="Monorail">
   <path d="m39.989 23.718h5.8663l2.3812 9.8351 6.2508-9.8351h6.102l-3.6091 18.517h-4.5269l2.6417-13.667-6.4244 10.108h-2.5673l-2.5549-10.108-2.6417 13.667h-4.5269z" style="paint-order:stroke markers fill"/>
   <path d="m70.672 31.184q-1.7239 0-2.8401 1.5627t-1.1162 3.9812q0 1.3146 0.59531 2.0092 0.60771 0.68213 1.7611 0.68213 1.7239 0 2.8401-1.5627 1.1162-1.5751 1.1162-4.006 0-1.3022-0.60772-1.9844-0.59531-0.68213-1.7487-0.68213zm0.35967-3.175q3.1006 0 4.8741 1.5751 1.7735 1.5751 1.7735 4.2912 0 1.5751-0.55811 3.0634-0.5581 1.4759-1.6247 2.7037-1.265 1.4635-2.989 2.2076-1.7239 0.74414-3.8447 0.74414-3.0634 0-4.8369-1.5751-1.7611-1.5751-1.7611-4.2912 0-1.5627 0.57051-3.051 0.57051-1.5007 1.6371-2.7409 1.2402-1.4387 2.9518-2.1828 1.7239-0.74414 3.8075-0.74414z" style="paint-order:stroke markers fill"/>
   <path d="m94.993 33.776-1.6495 8.4584h-4.4524l1.4015-7.243q0.14883-0.70693 0.22324-1.1906 0.08682-0.49609 0.08682-0.78135 0-0.79375-0.44648-1.2278-0.43408-0.43408-1.2402-0.43408-1.3767 0-2.3688 1.079-0.97978 1.0666-1.3643 2.9642l-1.3395 6.8337h-4.4524l2.7037-13.891h4.4648l-0.40928 2.034q1.2278-1.203 2.4681-1.7859 1.2402-0.58291 2.5921-0.58291 1.9224 0 2.9642 1.0046 1.0418 1.0046 1.0418 2.8277 0 0.39688-0.06201 0.88057-0.04961 0.48369-0.16123 1.0542z" style="paint-order:stroke markers fill"/>
   <path d="m106.24 31.184q-1.7239 0-2.8401 1.5627t-1.1162 3.9812q0 1.3146 0.59531 2.0092 0.60772 0.68213 1.7611 0.68213 1.7239 0 2.8401-1.5627 1.1162-1.5751 1.1162-4.006 0-1.3022-0.60771-1.9844-0.59532-0.68213-1.7487-0.68213zm0.35966-3.175q3.1006 0 4.8741 1.5751 1.7735 1.5751 1.7735 4.2912 0 1.5751-0.55811 3.0634-0.5581 1.4759-1.6247 2.7037-1.265 1.4635-2.989 2.2076-1.7239 0.74414-3.8447 0.74414-3.0634 0-4.8369-1.5751-1.7611-1.5751-1.7611-4.2912 0-1.5627 0.57051-3.051 0.57051-1.5007 1.6371-2.7409 1.2402-1.4387 2.9518-2.1828 1.7239-0.74414 3.8075-0.74414z" style="paint-order:stroke markers fill"/>
   <path d="m127.24 32.127q-0.45889-0.26045-1.017-0.39688-0.5581-0.13643-1.203-0.13643-1.6991 0-2.8277 1.0914-1.1162 1.0914-1.5131 3.1502l-1.265 6.3996h-4.4524l2.7037-13.891h4.4648l-0.48369 2.3812q0.88056-1.3146 2.1952-2.0092 1.327-0.70693 2.9394-0.70693 0.23564 0 0.5333 0.0248 0.29766 0.02481 0.70693 0.07441z" style="paint-order:stroke markers fill"/>
   <path d="m135.09 35.984q-1.6619 0-2.5177 0.5209-0.84336 0.5085-0.84336 1.5131 0 0.75654 0.4961 1.1906 0.50849 0.43408 1.3891 0.43408 1.3643 0 2.282-0.81856 0.91777-0.83096 1.2278-2.3316l0.0992-0.5085zm6.9329-1.6743-1.5503 7.9251h-4.44l0.37207-2.0588q-1.0914 1.2402-2.3068 1.8355-1.2154 0.58291-2.6417 0.58291-1.972 0-3.1378-1.017-1.1534-1.0294-1.1534-2.7657 0-2.6541 2.0464-4.0556 2.0588-1.4139 5.9283-1.4139h2.6169l0.0496-0.34726q0.0372-0.17363 0.0372-0.24805 0.0124-0.07441 0.0124-0.13643 0-0.81856-0.78135-1.2278-0.76894-0.42168-2.2944-0.42168-1.3767 0-2.6665 0.28525-1.2898 0.28525-2.4929 0.85576l0.66973-3.3858q1.3891-0.34726 2.8401-0.5209 1.4635-0.18604 3.0262-0.18604 3.0882 0 4.5889 1.0666 1.5007 1.0542 1.5007 3.2246 0 0.42168-0.062 0.93018-0.0496 0.49609-0.16123 1.079z" style="paint-order:stroke markers fill"/>
   <path d="m147.38 28.344h4.4648l-2.7161 13.891h-4.4524zm1.0418-5.4074h4.4648l-0.70694 3.6215h-4.4772z" style="paint-order:stroke markers fill"/>
   <path d="m157.15 22.937h4.4648l-3.7579 19.298h-4.4524z" style="paint-order:stroke markers fill"/>
  </g>
  <text x="186.90923" y="64.733627" fill="#000000" font-family="sans-serif" font-size="10.583px" letter-spacing="0px" stroke-width=".26458" word-spacing="0px" style="line-height:1.25" xml:space="preserve"><tspan x="186.90923" y="74.097397" stroke-width=".26458"/></text>
 </g>
</svg>
